<?xml version="1.0" encoding="utf-8"?>
<!-- Generator: Adobe Illustrator 23.0.3, SVG Export Plug-In . SVG Version: 6.00 Build 0)  -->
<svg version="1.1" id="Layer_1" xmlns="http://www.w3.org/2000/svg" xmlns:xlink="http://www.w3.org/1999/xlink" x="0px" y="0px"
	 viewBox="0 0 523.3 483" style="enable-background:new 0 0 523.3 483;" xml:space="preserve">
<style type="text/css">
	.st0{fill:#83BBE5;}
	.st1{fill:none;stroke:#FFFFFF;stroke-width:5;stroke-miterlimit:10;}
	.st2{fill:none;stroke:#FFFFFF;stroke-width:5;stroke-linecap:round;stroke-miterlimit:10;}
</style>
<rect class="st0" width="523.3" height="483"/>
<g>
	<g>
		<path class="st1" d="M196.5,335.3c-3.5-2.8-6.9-5.6-10.3-8.4C155,301.2,131,278.4,131,241.5c0-38,27.2-62.9,58.2-88
			c2.4-1.9,4.8-3.9,7.3-5.8"/>
		<g>
			<circle class="st1" cx="271.9" cy="241.5" r="120.4"/>
		</g>
		<path class="st1" d="M160.6,198.4c11.9,9.3,19.8,25.2,19.8,43.3c0,17.9-7.7,33.7-19.4,43"/>
	</g>
	<g>
		<circle class="st1" cx="334.8" cy="241.5" r="9.4"/>
		<g>
			<line class="st2" x1="334.8" y1="201.4" x2="334.8" y2="223.4"/>
			<line class="st2" x1="334.8" y1="259.6" x2="334.8" y2="281.7"/>
		</g>
		<g>
			<line class="st2" x1="374.9" y1="241.5" x2="352.9" y2="241.5"/>
			<line class="st2" x1="316.6" y1="241.5" x2="294.6" y2="241.5"/>
		</g>
		<g>
			<line class="st2" x1="358.9" y1="217.4" x2="347.6" y2="228.7"/>
			<line class="st2" x1="321.9" y1="254.3" x2="310.6" y2="265.7"/>
		</g>
		<g>
			<line class="st2" x1="358.9" y1="265.7" x2="347.6" y2="254.3"/>
			<line class="st2" x1="321.9" y1="228.7" x2="310.6" y2="217.4"/>
		</g>
	</g>
</g>
</svg>
