<?xml version="1.0" encoding="UTF-8"?>
<svg width="29px" height="29px" viewBox="0 0 29 29" version="1.1" xmlns="http://www.w3.org/2000/svg" xmlns:xlink="http://www.w3.org/1999/xlink">
    <!-- Generator: Sketch 52.4 (67378) - http://www.bohemiancoding.com/sketch -->
    <title>Group 7</title>
    <desc>Created with Sketch.</desc>
    <g id="design" stroke="none" stroke-width="1" fill="none" fill-rule="evenodd">
        <g id="researchers" transform="translate(-925.000000, -85.000000)">
            <g id="DROPDOWN-MENU" transform="translate(856.000000, 50.000000)">
                <g id="Group-7" transform="translate(69.000000, 35.000000)">
                    <path d="M9.51027587,0.000146655392 C4.26645607,0.000146655392 0,4.27661788 0,9.53274712 C0,14.7888764 4.26645607,19.0653476 9.51027587,19.0653476 C11.8721163,19.0653476 14.0294858,18.1960111 15.6941499,16.762418 L17.3172979,18.3893762 L16.3114034,19.397632 C16.1728057,19.5351215 16.0942216,19.7227377 16.0942216,19.9189553 C16.0942216,20.1151729 16.1728057,20.3027891 16.3114034,20.4402785 L24.2327316,28.3802015 C24.369899,28.5191244 24.5570759,28.5978931 24.752834,28.5978931 C24.948592,28.5978931 25.1357689,28.5191244 25.2729363,28.3802015 L28.3134812,25.3210433 C28.5949598,25.0360406 28.5949598,24.5748607 28.3134812,24.2898726 L20.392153,16.3382172 C20.2321243,16.1792465 20.0092181,16.1033413 19.7863484,16.1319831 C19.6220328,16.1491711 19.4691478,16.2222092 19.3519849,16.3382172 L18.3460903,17.3464731 L16.7343912,15.7309906 C18.1603473,14.0639221 19.0205152,11.8955855 19.0205152,9.53260047 C19.0205152,4.27647122 14.7540591,-4.26325641e-14 9.5102393,-4.26325641e-14 L9.51027587,0.000146655392 Z M9.51027587,1.46670057 C13.9640112,1.46670057 17.5574324,5.06863032 17.5574324,9.53274712 C17.5574324,13.9968639 13.9639381,17.5987937 9.51027587,17.5987937 C5.05661368,17.5987937 1.46311937,13.9968639 1.46311937,9.53274712 C1.46311937,5.06863032 5.05661368,1.46670057 9.51027587,1.46670057 Z M19.8779397,17.8965041 L21.1581691,19.1797388 L19.14638,21.1962504 L17.8661506,19.9130158 L19.8779397,17.8965041 Z M22.1983739,20.2223853 L26.7706219,24.8053663 L24.7588327,26.8218779 L20.1865847,22.2388969 L22.1983739,20.2223853 Z" id="Fill-1-Copy" fill="#FFFFFF"></path>
                    <polygon id="Path-Copy-3" fill="#6AAAE0" points="22.1983739 20.2223853 26.7706219 24.8053663 24.7588327 26.8218779 20.1865847 22.2388969"></polygon>
                </g>
            </g>
        </g>
    </g>
</svg>