<svg id="Layer_1" data-name="Layer 1" xmlns="http://www.w3.org/2000/svg" viewBox="0 0 22 28"><defs><style>.cls-1{fill:#3c8fd7;fill-rule:evenodd;}</style></defs><title>visit-icon_blue</title><g id="design"><g id="Home-V5-C"><path id="Fill-1" class="cls-1" d="M22,25.13V6.56a2.9,2.9,0,0,0-2.91-2.87H16A5.2,5.2,0,0,0,12.86.34a5.29,5.29,0,0,0-3.72,0A5.16,5.16,0,0,0,6.71,2.23,5.07,5.07,0,0,0,6,3.69H2.91A2.9,2.9,0,0,0,0,6.56V25.12A2.9,2.9,0,0,0,2.91,28H19.09A2.89,2.89,0,0,0,22,25.13ZM15.63,8a.57.57,0,0,0,.58-.57h1.44V18.56H13.9a1.16,1.16,0,0,0-1.17,1.15v4H4.64V7.44H5.79A.57.57,0,0,0,6.37,8ZM17,19.71,13.9,22.82V19.71ZM7,5.15A4,4,0,0,1,9.56,1.41a4.08,4.08,0,0,1,2.88,0,4,4,0,0,1,2.61,3.74V6.86H7Zm-5.79,20V6.56A1.74,1.74,0,0,1,2.91,4.84H5.8c0,.1,0,.21,0,.31V6.29H4.05a.58.58,0,0,0-.58.58V24.28a.57.57,0,0,0,.58.57h9.21a.58.58,0,0,0,.41-.17l5-5a.56.56,0,0,0,.17-.4V6.86a.58.58,0,0,0-.59-.57h-2V5.15c0-.11,0-.21,0-.31h2.89a1.73,1.73,0,0,1,1.74,1.72V25.12a1.74,1.74,0,0,1-1.74,1.73H2.91a1.74,1.74,0,0,1-1.75-1.72Z" transform="translate(0 0)"/></g></g></svg>